<svg width="630" height="7" viewBox="0 0 630 7" fill="none" xmlns="http://www.w3.org/2000/svg">
<path opacity="0.238072" d="M0.5 3C0.223858 3 0 3.22386 0 3.5C0 3.77614 0.223858 4 0.5 4V3ZM629.5 3.5L624.5 0.613249V6.38675L629.5 3.5ZM2.99603 4C3.27217 4 3.49603 3.77614 3.49603 3.5C3.49603 3.22386 3.27217 3 2.99603 3V4ZM7.9881 3C7.71195 3 7.4881 3.22386 7.4881 3.5C7.4881 3.77614 7.71195 4 7.9881 4V3ZM12.9802 4C13.2563 4 13.4802 3.77614 13.4802 3.5C13.4802 3.22386 13.2563 3 12.9802 3V4ZM17.9722 3C17.6961 3 17.4722 3.22386 17.4722 3.5C17.4722 3.77614 17.6961 4 17.9722 4V3ZM22.9643 4C23.2404 4 23.4643 3.77614 23.4643 3.5C23.4643 3.22386 23.2404 3 22.9643 3V4ZM27.9563 3C27.6802 3 27.4563 3.22386 27.4563 3.5C27.4563 3.77614 27.6802 4 27.9563 4V3ZM32.9484 4C33.2246 4 33.4484 3.77614 33.4484 3.5C33.4484 3.22386 33.2246 3 32.9484 3V4ZM37.9405 3C37.6643 3 37.4405 3.22386 37.4405 3.5C37.4405 3.77614 37.6643 4 37.9405 4V3ZM42.9325 4C43.2087 4 43.4325 3.77614 43.4325 3.5C43.4325 3.22386 43.2087 3 42.9325 3V4ZM47.9246 3C47.6485 3 47.4246 3.22386 47.4246 3.5C47.4246 3.77614 47.6485 4 47.9246 4V3ZM52.9167 4C53.1928 4 53.4167 3.77614 53.4167 3.5C53.4167 3.22386 53.1928 3 52.9167 3V4ZM57.9087 3C57.6326 3 57.4087 3.22386 57.4087 3.5C57.4087 3.77614 57.6326 4 57.9087 4V3ZM62.9008 4C63.1769 4 63.4008 3.77614 63.4008 3.5C63.4008 3.22386 63.1769 3 62.9008 3V4ZM67.8929 3C67.6167 3 67.3929 3.22386 67.3929 3.5C67.3929 3.77614 67.6167 4 67.8929 4V3ZM72.8849 4C73.1611 4 73.3849 3.77614 73.3849 3.5C73.3849 3.22386 73.1611 3 72.8849 3V4ZM77.877 3C77.6009 3 77.377 3.22386 77.377 3.5C77.377 3.77614 77.6009 4 77.877 4V3ZM82.8691 4C83.1452 4 83.3691 3.77614 83.3691 3.5C83.3691 3.22386 83.1452 3 82.8691 3V4ZM87.8611 3C87.585 3 87.3611 3.22386 87.3611 3.5C87.3611 3.77614 87.585 4 87.8611 4V3ZM92.8532 4C93.1293 4 93.3532 3.77614 93.3532 3.5C93.3532 3.22386 93.1293 3 92.8532 3V4ZM97.8453 3C97.5691 3 97.3453 3.22386 97.3453 3.5C97.3453 3.77614 97.5691 4 97.8453 4V3ZM102.837 4C103.113 4 103.337 3.77614 103.337 3.5C103.337 3.22386 103.113 3 102.837 3V4ZM107.829 3C107.553 3 107.329 3.22386 107.329 3.5C107.329 3.77614 107.553 4 107.829 4V3ZM112.821 4C113.098 4 113.321 3.77614 113.321 3.5C113.321 3.22386 113.098 3 112.821 3V4ZM117.814 3C117.537 3 117.314 3.22386 117.314 3.5C117.314 3.77614 117.537 4 117.814 4V3ZM122.806 4C123.082 4 123.306 3.77614 123.306 3.5C123.306 3.22386 123.082 3 122.806 3V4ZM127.798 3C127.522 3 127.298 3.22386 127.298 3.5C127.298 3.77614 127.522 4 127.798 4V3ZM132.79 4C133.066 4 133.29 3.77614 133.29 3.5C133.29 3.22386 133.066 3 132.79 3V4ZM137.782 3C137.506 3 137.282 3.22386 137.282 3.5C137.282 3.77614 137.506 4 137.782 4V3ZM142.774 4C143.05 4 143.274 3.77614 143.274 3.5C143.274 3.22386 143.05 3 142.774 3V4ZM147.766 3C147.49 3 147.266 3.22386 147.266 3.5C147.266 3.77614 147.49 4 147.766 4V3ZM152.758 4C153.034 4 153.258 3.77614 153.258 3.5C153.258 3.22386 153.034 3 152.758 3V4ZM157.75 3C157.474 3 157.25 3.22386 157.25 3.5C157.25 3.77614 157.474 4 157.75 4V3ZM162.742 4C163.018 4 163.242 3.77614 163.242 3.5C163.242 3.22386 163.018 3 162.742 3V4ZM167.734 3C167.458 3 167.234 3.22386 167.234 3.5C167.234 3.77614 167.458 4 167.734 4V3ZM172.726 4C173.002 4 173.226 3.77614 173.226 3.5C173.226 3.22386 173.002 3 172.726 3V4ZM177.718 3C177.442 3 177.218 3.22386 177.218 3.5C177.218 3.77614 177.442 4 177.718 4V3ZM182.71 4C182.987 4 183.21 3.77614 183.21 3.5C183.21 3.22386 182.987 3 182.71 3V4ZM187.702 3C187.426 3 187.202 3.22386 187.202 3.5C187.202 3.77614 187.426 4 187.702 4V3ZM192.695 4C192.971 4 193.195 3.77614 193.195 3.5C193.195 3.22386 192.971 3 192.695 3V4ZM197.687 3C197.41 3 197.187 3.22386 197.187 3.5C197.187 3.77614 197.41 4 197.687 4V3ZM202.679 4C202.955 4 203.179 3.77614 203.179 3.5C203.179 3.22386 202.955 3 202.679 3V4ZM207.671 3C207.395 3 207.171 3.22386 207.171 3.5C207.171 3.77614 207.395 4 207.671 4V3ZM212.663 4C212.939 4 213.163 3.77614 213.163 3.5C213.163 3.22386 212.939 3 212.663 3V4ZM217.655 3C217.379 3 217.155 3.22386 217.155 3.5C217.155 3.77614 217.379 4 217.655 4V3ZM222.647 4C222.923 4 223.147 3.77614 223.147 3.5C223.147 3.22386 222.923 3 222.647 3V4ZM227.639 3C227.363 3 227.139 3.22386 227.139 3.5C227.139 3.77614 227.363 4 227.639 4V3ZM232.631 4C232.907 4 233.131 3.77614 233.131 3.5C233.131 3.22386 232.907 3 232.631 3V4ZM237.623 3C237.347 3 237.123 3.22386 237.123 3.5C237.123 3.77614 237.347 4 237.623 4V3ZM242.615 4C242.891 4 243.115 3.77614 243.115 3.5C243.115 3.22386 242.891 3 242.615 3V4ZM247.607 3C247.331 3 247.107 3.22386 247.107 3.5C247.107 3.77614 247.331 4 247.607 4V3ZM252.599 4C252.875 4 253.099 3.77614 253.099 3.5C253.099 3.22386 252.875 3 252.599 3V4ZM257.591 3C257.315 3 257.091 3.22386 257.091 3.5C257.091 3.77614 257.315 4 257.591 4V3ZM262.583 4C262.86 4 263.083 3.77614 263.083 3.5C263.083 3.22386 262.86 3 262.583 3V4ZM267.575 3C267.299 3 267.075 3.22386 267.075 3.5C267.075 3.77614 267.299 4 267.575 4V3ZM272.568 4C272.844 4 273.068 3.77614 273.068 3.5C273.068 3.22386 272.844 3 272.568 3V4ZM277.56 3C277.283 3 277.06 3.22386 277.06 3.5C277.06 3.77614 277.283 4 277.56 4V3ZM282.552 4C282.828 4 283.052 3.77614 283.052 3.5C283.052 3.22386 282.828 3 282.552 3V4ZM287.544 3C287.268 3 287.044 3.22386 287.044 3.5C287.044 3.77614 287.268 4 287.544 4V3ZM292.536 4C292.812 4 293.036 3.77614 293.036 3.5C293.036 3.22386 292.812 3 292.536 3V4ZM297.528 3C297.252 3 297.028 3.22386 297.028 3.5C297.028 3.77614 297.252 4 297.528 4V3ZM302.52 4C302.796 4 303.02 3.77614 303.02 3.5C303.02 3.22386 302.796 3 302.52 3V4ZM307.512 3C307.236 3 307.012 3.22386 307.012 3.5C307.012 3.77614 307.236 4 307.512 4V3ZM312.504 4C312.78 4 313.004 3.77614 313.004 3.5C313.004 3.22386 312.78 3 312.504 3V4ZM317.496 3C317.22 3 316.996 3.22386 316.996 3.5C316.996 3.77614 317.22 4 317.496 4V3ZM322.488 4C322.764 4 322.988 3.77614 322.988 3.5C322.988 3.22386 322.764 3 322.488 3V4ZM327.48 3C327.204 3 326.98 3.22386 326.98 3.5C326.98 3.77614 327.204 4 327.48 4V3ZM332.472 4C332.748 4 332.972 3.77614 332.972 3.5C332.972 3.22386 332.748 3 332.472 3V4ZM337.464 3C337.188 3 336.964 3.22386 336.964 3.5C336.964 3.77614 337.188 4 337.464 4V3ZM342.456 4C342.733 4 342.956 3.77614 342.956 3.5C342.956 3.22386 342.733 3 342.456 3V4ZM347.449 3C347.172 3 346.949 3.22386 346.949 3.5C346.949 3.77614 347.172 4 347.449 4V3ZM352.441 4C352.717 4 352.941 3.77614 352.941 3.5C352.941 3.22386 352.717 3 352.441 3V4ZM357.433 3C357.156 3 356.933 3.22386 356.933 3.5C356.933 3.77614 357.156 4 357.433 4V3ZM362.425 4C362.701 4 362.925 3.77614 362.925 3.5C362.925 3.22386 362.701 3 362.425 3V4ZM367.417 3C367.141 3 366.917 3.22386 366.917 3.5C366.917 3.77614 367.141 4 367.417 4V3ZM372.409 4C372.685 4 372.909 3.77614 372.909 3.5C372.909 3.22386 372.685 3 372.409 3V4ZM377.401 3C377.125 3 376.901 3.22386 376.901 3.5C376.901 3.77614 377.125 4 377.401 4V3ZM382.393 4C382.669 4 382.893 3.77614 382.893 3.5C382.893 3.22386 382.669 3 382.393 3V4ZM387.385 3C387.109 3 386.885 3.22386 386.885 3.5C386.885 3.77614 387.109 4 387.385 4V3ZM392.377 4C392.653 4 392.877 3.77614 392.877 3.5C392.877 3.22386 392.653 3 392.377 3V4ZM397.369 3C397.093 3 396.869 3.22386 396.869 3.5C396.869 3.77614 397.093 4 397.369 4V3ZM402.361 4C402.637 4 402.861 3.77614 402.861 3.5C402.861 3.22386 402.637 3 402.361 3V4ZM407.353 3C407.077 3 406.853 3.22386 406.853 3.5C406.853 3.77614 407.077 4 407.353 4V3ZM412.345 4C412.621 4 412.845 3.77614 412.845 3.5C412.845 3.22386 412.621 3 412.345 3V4ZM417.337 3C417.061 3 416.837 3.22386 416.837 3.5C416.837 3.77614 417.061 4 417.337 4V3ZM422.329 4C422.606 4 422.829 3.77614 422.829 3.5C422.829 3.22386 422.606 3 422.329 3V4ZM427.322 3C427.045 3 426.822 3.22386 426.822 3.5C426.822 3.77614 427.045 4 427.322 4V3ZM432.314 4C432.59 4 432.814 3.77614 432.814 3.5C432.814 3.22386 432.59 3 432.314 3V4ZM437.306 3C437.03 3 436.806 3.22386 436.806 3.5C436.806 3.77614 437.03 4 437.306 4V3ZM442.298 4C442.574 4 442.798 3.77614 442.798 3.5C442.798 3.22386 442.574 3 442.298 3V4ZM447.29 3C447.014 3 446.79 3.22386 446.79 3.5C446.79 3.77614 447.014 4 447.29 4V3ZM452.282 4C452.558 4 452.782 3.77614 452.782 3.5C452.782 3.22386 452.558 3 452.282 3V4ZM457.274 3C456.998 3 456.774 3.22386 456.774 3.5C456.774 3.77614 456.998 4 457.274 4V3ZM462.266 4C462.542 4 462.766 3.77614 462.766 3.5C462.766 3.22386 462.542 3 462.266 3V4ZM467.258 3C466.982 3 466.758 3.22386 466.758 3.5C466.758 3.77614 466.982 4 467.258 4V3ZM472.25 4C472.526 4 472.75 3.77614 472.75 3.5C472.75 3.22386 472.526 3 472.25 3V4ZM477.242 3C476.966 3 476.742 3.22386 476.742 3.5C476.742 3.77614 476.966 4 477.242 4V3ZM482.234 4C482.51 4 482.734 3.77614 482.734 3.5C482.734 3.22386 482.51 3 482.234 3V4ZM487.226 3C486.95 3 486.726 3.22386 486.726 3.5C486.726 3.77614 486.95 4 487.226 4V3ZM492.218 4C492.495 4 492.718 3.77614 492.718 3.5C492.718 3.22386 492.495 3 492.218 3V4ZM497.21 3C496.934 3 496.71 3.22386 496.71 3.5C496.71 3.77614 496.934 4 497.21 4V3ZM502.203 4C502.479 4 502.703 3.77614 502.703 3.5C502.703 3.22386 502.479 3 502.203 3V4ZM507.195 3C506.918 3 506.695 3.22386 506.695 3.5C506.695 3.77614 506.918 4 507.195 4V3ZM512.187 4C512.463 4 512.687 3.77614 512.687 3.5C512.687 3.22386 512.463 3 512.187 3V4ZM517.179 3C516.903 3 516.679 3.22386 516.679 3.5C516.679 3.77614 516.903 4 517.179 4V3ZM522.171 4C522.447 4 522.671 3.77614 522.671 3.5C522.671 3.22386 522.447 3 522.171 3V4ZM527.163 3C526.887 3 526.663 3.22386 526.663 3.5C526.663 3.77614 526.887 4 527.163 4V3ZM532.155 4C532.431 4 532.655 3.77614 532.655 3.5C532.655 3.22386 532.431 3 532.155 3V4ZM537.147 3C536.871 3 536.647 3.22386 536.647 3.5C536.647 3.77614 536.871 4 537.147 4V3ZM542.139 4C542.415 4 542.639 3.77614 542.639 3.5C542.639 3.22386 542.415 3 542.139 3V4ZM547.131 3C546.855 3 546.631 3.22386 546.631 3.5C546.631 3.77614 546.855 4 547.131 4V3ZM552.123 4C552.399 4 552.623 3.77614 552.623 3.5C552.623 3.22386 552.399 3 552.123 3V4ZM557.115 3C556.839 3 556.615 3.22386 556.615 3.5C556.615 3.77614 556.839 4 557.115 4V3ZM562.107 4C562.383 4 562.607 3.77614 562.607 3.5C562.607 3.22386 562.383 3 562.107 3V4ZM567.099 3C566.823 3 566.599 3.22386 566.599 3.5C566.599 3.77614 566.823 4 567.099 4V3ZM572.091 4C572.368 4 572.591 3.77614 572.591 3.5C572.591 3.22386 572.368 3 572.091 3V4ZM577.083 3C576.807 3 576.583 3.22386 576.583 3.5C576.583 3.77614 576.807 4 577.083 4V3ZM582.076 4C582.352 4 582.576 3.77614 582.576 3.5C582.576 3.22386 582.352 3 582.076 3V4ZM587.068 3C586.792 3 586.568 3.22386 586.568 3.5C586.568 3.77614 586.792 4 587.068 4V3ZM592.06 4C592.336 4 592.56 3.77614 592.56 3.5C592.56 3.22386 592.336 3 592.06 3V4ZM597.052 3C596.776 3 596.552 3.22386 596.552 3.5C596.552 3.77614 596.776 4 597.052 4V3ZM602.044 4C602.32 4 602.544 3.77614 602.544 3.5C602.544 3.22386 602.32 3 602.044 3V4ZM607.036 3C606.76 3 606.536 3.22386 606.536 3.5C606.536 3.77614 606.76 4 607.036 4V3ZM612.028 4C612.304 4 612.528 3.77614 612.528 3.5C612.528 3.22386 612.304 3 612.028 3V4ZM617.02 3C616.744 3 616.52 3.22386 616.52 3.5C616.52 3.77614 616.744 4 617.02 4V3ZM622.012 4C622.288 4 622.512 3.77614 622.512 3.5C622.512 3.22386 622.288 3 622.012 3V4ZM627.004 3C626.728 3 626.504 3.22386 626.504 3.5C626.504 3.77614 626.728 4 627.004 4V3ZM0.5 4H2.99603V3H0.5V4ZM7.9881 4H12.9802V3H7.9881V4ZM17.9722 4H22.9643V3H17.9722V4ZM27.9563 4H32.9484V3H27.9563V4ZM37.9405 4H42.9325V3H37.9405V4ZM47.9246 4H52.9167V3H47.9246V4ZM57.9087 4H62.9008V3H57.9087V4ZM67.8929 4H72.8849V3H67.8929V4ZM77.877 4H82.8691V3H77.877V4ZM87.8611 4H92.8532V3H87.8611V4ZM97.8453 4H102.837V3H97.8453V4ZM107.829 4H112.821V3H107.829V4ZM117.814 4H122.806V3H117.814V4ZM127.798 4H132.79V3H127.798V4ZM137.782 4H142.774V3H137.782V4ZM147.766 4H152.758V3H147.766V4ZM157.75 4H162.742V3H157.75V4ZM167.734 4H172.726V3H167.734V4ZM177.718 4H182.71V3H177.718V4ZM187.702 4H192.695V3H187.702V4ZM197.687 4H202.679V3H197.687V4ZM207.671 4H212.663V3H207.671V4ZM217.655 4H222.647V3H217.655V4ZM227.639 4H232.631V3H227.639V4ZM237.623 4H242.615V3H237.623V4ZM247.607 4H252.599V3H247.607V4ZM257.591 4H262.583V3H257.591V4ZM267.575 4H272.568V3H267.575V4ZM277.56 4H282.552V3H277.56V4ZM287.544 4H292.536V3H287.544V4ZM297.528 4H302.52V3H297.528V4ZM307.512 4H312.504V3H307.512V4ZM317.496 4H322.488V3H317.496V4ZM327.48 4H332.472V3H327.48V4ZM337.464 4H342.456V3H337.464V4ZM347.449 4H352.441V3H347.449V4ZM357.433 4H362.425V3H357.433V4ZM367.417 4H372.409V3H367.417V4ZM377.401 4H382.393V3H377.401V4ZM387.385 4H392.377V3H387.385V4ZM397.369 4H402.361V3H397.369V4ZM407.353 4H412.345V3H407.353V4ZM417.337 4H422.329V3H417.337V4ZM427.322 4H432.314V3H427.322V4ZM437.306 4H442.298V3H437.306V4ZM447.29 4H452.282V3H447.29V4ZM457.274 4H462.266V3H457.274V4ZM467.258 4H472.25V3H467.258V4ZM477.242 4H482.234V3H477.242V4ZM487.226 4H492.218V3H487.226V4ZM497.21 4H502.203V3H497.21V4ZM507.195 4H512.187V3H507.195V4ZM517.179 4H522.171V3H517.179V4ZM527.163 4H532.155V3H527.163V4ZM537.147 4H542.139V3H537.147V4ZM547.131 4H552.123V3H547.131V4ZM557.115 4H562.107V3H557.115V4ZM567.099 4H572.091V3H567.099V4ZM577.083 4H582.076V3H577.083V4ZM587.068 4H592.06V3H587.068V4ZM597.052 4H602.044V3H597.052V4ZM607.036 4H612.028V3H607.036V4ZM617.02 4H622.012V3H617.02V4Z" fill="#4A4A4A"/>
</svg>
