<svg width="18" height="18" viewBox="0 0 18 18" fill="none" xmlns="http://www.w3.org/2000/svg">
<rect width="18" height="18" fill="#F2F2F2"/>
<g clip-path="url(#clip0)">
<rect x="-1090" y="-1068" width="1440" height="1303" fill="white"/>
<path fill-rule="evenodd" clip-rule="evenodd" d="M-1090 -97H350V235H-1090V-97Z" fill="white"/>
<path fill-rule="evenodd" clip-rule="evenodd" d="M9.00042 -6.49691e-05C13.9709 -6.49691e-05 18.0009 3.91043 18.0009 8.73449C18.0009 13.5582 13.9709 17.4687 9.00042 17.4687C4.02884 17.4687 -9.0003e-05 13.5582 -9.0003e-05 8.73449C-9.0003e-05 3.91043 4.02884 -6.49691e-05 9.00042 -6.49691e-05Z" fill="#007AFF"/>
<path fill-rule="evenodd" clip-rule="evenodd" d="M11.7331 3.49652L10.0054 3.49437C8.06543 3.49437 6.81077 4.61889 6.81077 6.35997V7.68099H5.07329C4.9244 7.68099 4.80178 7.78739 4.80178 7.9193V9.8335C4.80178 9.96449 4.9244 10.0709 5.07329 10.0709H6.80967V14.9017C6.80967 15.0327 6.9323 15.1397 7.08119 15.1397H9.34746C9.49855 15.1397 9.62008 15.0327 9.62008 14.9017V10.0709H11.651C11.801 10.0709 11.9225 9.96449 11.9225 9.8335L11.9236 7.9193C11.9236 7.85596 11.8951 7.79568 11.8447 7.7514C11.7933 7.70589 11.7243 7.68099 11.6521 7.68099H9.62008V6.56108C9.62008 6.02295 9.76678 5.74928 10.5693 5.74928H11.732C11.8842 5.74928 12.0046 5.64288 12.0046 5.51157V3.73423C12.0046 3.60292 11.8842 3.49652 11.7331 3.49652Z" fill="white"/>
</g>
<defs>
<clipPath id="clip0">
<rect x="-1090" y="-1068" width="1440" height="1303" fill="white"/>
</clipPath>
</defs>
</svg>
