<svg width="18" height="18" viewBox="0 0 18 18" fill="none" xmlns="http://www.w3.org/2000/svg">
<rect width="18" height="18" fill="#F2F2F2"/>
<g id="shopper">
<g clip-path="url(#clip0)">
<rect x="-1090" y="-1160" width="1440" height="1303" fill="white"/>
<g id="Footer">
<path id="base" fill-rule="evenodd" clip-rule="evenodd" d="M-1090 -189H350V143H-1090V-189Z" fill="white"/>
<g id="secondary footer">
<g id="Follow Us">
<g id="insta icon">
<path id="Ellipse 5 copy 2" fill-rule="evenodd" clip-rule="evenodd" d="M9.00042 0.531131C13.9709 0.531131 18.0009 4.44192 18.0009 9.26568C18.0009 14.0894 13.9709 18.0002 9.00042 18.0002C4.02884 18.0002 -9.0003e-05 14.0894 -9.0003e-05 9.26568C-9.0003e-05 4.44192 4.02884 0.531131 9.00042 0.531131Z" fill="#007AFF"/>
<path id="Combined shape 417" fill-rule="evenodd" clip-rule="evenodd" d="M13.9928 4.41733C13.7202 4.15319 13.395 4.02095 13.0162 4.02095H4.98462C4.60471 4.02095 4.27846 4.15319 4.00803 4.41733C3.73543 4.68086 3.59858 4.99758 3.59858 5.36596V13.1614C3.59858 13.5298 3.73543 13.8465 4.00803 14.11C4.27846 14.3742 4.60471 14.5064 4.98462 14.5064H13.0162C13.395 14.5064 13.7202 14.3742 13.9928 14.11C14.2654 13.8465 14.4001 13.5298 14.4001 13.1614V5.36596C14.4001 4.99758 14.2654 4.68116 13.9928 4.41733ZM7.47751 7.79922C7.90121 7.40131 8.4114 7.20205 9.00697 7.20205C9.60803 7.20205 10.1193 7.40131 10.5441 7.79922C10.9678 8.19743 11.1802 8.67897 11.1802 9.24293C11.1802 9.80719 10.9678 10.2884 10.5441 10.6866C10.1193 11.0849 9.60803 11.2841 9.00697 11.2841C8.4114 11.2841 7.90121 11.0849 7.47751 10.6866C7.05382 10.2884 6.84033 9.80719 6.84033 9.24293C6.84033 8.67897 7.05382 8.19743 7.47751 7.79922ZM13.1771 12.8816C13.1771 13 13.1355 13.0987 13.0501 13.1783C12.9658 13.2583 12.8651 13.2979 12.748 13.2979H5.23095C5.10943 13.2979 5.00651 13.2583 4.9244 13.1783C4.84339 13.099 4.80178 13 4.80178 12.8816V8.45819H5.79369C5.69953 8.74478 5.65246 9.04305 5.65246 9.3524C5.65246 10.226 5.9809 10.9714 6.63779 11.5879C7.29358 12.2048 8.08405 12.5132 9.00697 12.5132C9.61678 12.5132 10.1795 12.3718 10.6952 12.0898C11.2109 11.8075 11.6181 11.4243 11.9181 10.9394C12.2192 10.4548 12.3681 9.92589 12.3681 9.3524C12.3681 9.04305 12.3221 8.74478 12.2279 8.45819H13.1771V12.8816ZM13.1771 6.786C13.1771 6.91762 13.1312 7.02923 13.037 7.12026C12.9428 7.21097 12.8279 7.25678 12.6921 7.25678H11.4681C11.3335 7.25678 11.2174 7.21097 11.1233 7.12026C11.0302 7.02923 10.9831 6.91762 10.9831 6.786V5.65932C10.9831 5.53202 11.0302 5.42163 11.1233 5.32846C11.2174 5.23497 11.3335 5.18854 11.4681 5.18854H12.6921C12.8279 5.18854 12.9428 5.23497 13.037 5.32846C13.1312 5.42163 13.1771 5.53202 13.1771 5.65932V6.786Z" fill="white"/>
</g>
</g>
</g>
</g>
</g>
</g>
<defs>
<clipPath id="clip0">
<rect x="-1090" y="-1160" width="1440" height="1303" fill="white"/>
</clipPath>
</defs>
</svg>
