<svg width="18" height="18" viewBox="0 0 18 18" fill="none" xmlns="http://www.w3.org/2000/svg">
<rect width="18" height="18" fill="#F2F2F2"/>
<g id="shopper">
<g clip-path="url(#clip0)">
<rect x="-1090" y="-1099" width="1440" height="1303" fill="white"/>
<g id="Footer">
<path id="base" fill-rule="evenodd" clip-rule="evenodd" d="M-1090 -128H350V204H-1090V-128Z" fill="white"/>
<g id="secondary footer">
<g id="Follow Us">
<g id="pntr icon">
<path id="Ellipse 5 copy 3" fill-rule="evenodd" clip-rule="evenodd" d="M9.00042 0.28134C13.9709 0.28134 18.0009 4.19152 18.0009 9.01588C18.0009 13.8396 13.9709 17.7498 9.00042 17.7498C4.02884 17.7498 -9.0003e-05 13.8396 -9.0003e-05 9.01588C-9.0003e-05 4.19152 4.02884 0.28134 9.00042 0.28134Z" fill="#007AFF"/>
<path id="Forma 1 copy 3" fill-rule="evenodd" clip-rule="evenodd" d="M5.55391 10.1939C6.22832 9.09768 5.33715 8.85722 5.19701 8.06294C4.62661 4.81512 9.26974 2.59742 11.7013 4.86648C13.3841 6.43781 12.275 11.2705 9.56315 10.7671C6.96514 10.288 10.8364 6.44149 8.76173 5.68688C7.07681 5.0728 6.18125 7.56355 6.98047 8.80125C6.51189 10.9301 5.50356 12.935 5.91192 15.6035C7.23666 14.7197 7.68443 13.0257 8.0501 11.2594C8.71576 11.6318 9.07266 12.0189 9.92114 12.0792C13.0523 12.3021 14.8019 9.20285 14.3727 6.34248C13.9928 3.80653 11.2459 2.51533 8.31505 2.81821C5.99841 3.05714 3.68945 4.78006 3.5931 7.24437C3.53507 8.74835 3.99928 9.8772 5.55391 10.1939Z" fill="white"/>
</g>
</g>
</g>
</g>
</g>
</g>
<defs>
<clipPath id="clip0">
<rect x="-1090" y="-1099" width="1440" height="1303" fill="white"/>
</clipPath>
</defs>
</svg>
