<svg width="18" height="18" viewBox="0 0 18 18" fill="none" xmlns="http://www.w3.org/2000/svg">
<rect width="18" height="18" fill="#F2F2F2"/>
<g id="shopper">
<g clip-path="url(#clip0)">
<rect x="-1091" y="-1130" width="1440" height="1303" fill="white"/>
<g id="Footer">
<path id="base" fill-rule="evenodd" clip-rule="evenodd" d="M-1091 -159H349V173H-1091V-159Z" fill="white"/>
<g id="secondary footer">
<g id="Follow Us">
<g id="twt icon">
<path id="Ellipse 5 copy" fill-rule="evenodd" clip-rule="evenodd" d="M8.99997 0.25002C13.9705 0.25002 17.9994 4.1605 17.9994 8.98426C17.9994 13.8083 13.9705 17.7188 8.99997 17.7188C4.0295 17.7188 -0.000527024 13.8083 -0.000527024 8.98426C-0.000527024 4.1605 4.0295 0.25002 8.99997 0.25002Z" fill="#007AFF"/>
<path id="Forma 1 copy 2" fill-rule="evenodd" clip-rule="evenodd" d="M15.2262 5.06547C14.7029 5.33545 14.1248 5.53194 13.5073 5.63804C13.0147 5.17863 12.3118 4.89327 11.5334 4.89327C10.04 4.89327 8.8281 5.94892 8.8281 7.24995C8.8281 7.43414 8.85326 7.61434 8.89816 7.78653C6.6516 7.68814 4.65794 6.74966 3.32334 5.32407C3.09014 5.67155 2.95877 6.07623 2.95877 6.50857C2.95877 7.32652 3.43611 8.04791 4.16088 8.47043C3.71747 8.4575 3.30035 8.35111 2.93578 8.1743V8.20382C2.93578 9.34587 3.86856 10.2979 5.10461 10.515C4.87798 10.5688 4.63931 10.5983 4.39189 10.5983C4.21781 10.5983 4.04922 10.5826 3.8828 10.555C4.22766 11.4916 5.22614 12.1727 6.40963 12.1927C5.48342 12.8243 4.31744 13.2007 3.05074 13.2007C2.83178 13.2007 2.6161 13.1896 2.4048 13.1684C3.60142 13.8369 5.0236 14.2274 6.55086 14.2274C11.5268 14.2274 14.2474 10.6358 14.2474 7.52117L14.2387 7.21582C14.7686 6.88495 15.2284 6.46952 15.5897 5.99781C15.1047 6.18477 14.5846 6.31176 14.0372 6.36865C14.5956 6.07745 15.0237 5.61466 15.2262 5.06547Z" fill="white"/>
</g>
</g>
</g>
</g>
</g>
</g>
<defs>
<clipPath id="clip0">
<rect x="-1091" y="-1130" width="1440" height="1303" fill="white"/>
</clipPath>
</defs>
</svg>
